<?xml version="1.0" encoding="iso-8859-1"?>
<!-- Generator: Adobe Illustrator 19.0.0, SVG Export Plug-In . SVG Version: 6.00 Build 0)  -->
<svg version="1.1" id="Layer_1" xmlns="http://www.w3.org/2000/svg" xmlns:xlink="http://www.w3.org/1999/xlink" x="0px" y="0px"
	 viewBox="0 0 482 482"  xml:space="preserve">
<g transform="translate(0 -540.36)">
	<g>
		<g>
			<path d="M361.2,794.06c0.9-42.7-22-82.8-59.7-104.8c-38-22.1-83.2-22.1-121.1,0c-18.2,10.4-33.4,25.7-44,44.1
				c-10.7,18.6-16.1,39.6-15.7,60.7c0.1,5.5,4.6,9.9,10.1,9.8l110.2-0.8l110.3,0.8C356.7,803.86,361.2,799.56,361.2,794.06z
				 M241,783.06l-99.9,0.7c2.7-31.6,21.3-61.2,49.4-77.3c31.6-18.4,69.4-18.4,101,0c28.5,16.6,46.9,45.6,49.5,77.3L241,783.06z"/>
			<path d="M241,622.36c5.5,0,10-4.5,10-10v-50c0-5.5-4.5-10-10-10s-10,4.5-10,10v50C231,617.86,235.5,622.36,241,622.36z"/>
			<path d="M372.2,672.36c2.6,0,5.1-1,7-2.9l39.4-39.5c3.9-3.9,3.9-10.2,0-14.1c-3.9-3.9-10.2-3.9-14.1,0l-39.4,39.5
				c-3.9,3.9-3.9,10.2,0,14.1C367.1,671.36,369.6,672.36,372.2,672.36z"/>
			<path d="M102.7,669.46c2,1.9,4.5,2.9,7.1,2.9c2.6,0,5.1-1,7-2.9c3.9-3.9,3.9-10.2,0-14.1l-39.4-39.5c-3.9-3.9-10.2-3.9-14.1,0
				c-3.9,3.9-3.9,10.2,0,14.1L102.7,669.46z"/>
			<path d="M472,783.86h-49.9c-5.5,0-10,4.5-10,10s4.5,10,10,10H472c5.5,0,10-4.5,10-10S477.5,783.86,472,783.86z"/>
			<path d="M59.9,783.86H10c-5.5,0-10,4.5-10,10s4.5,10,10,10h49.9c5.5,0,10-4.5,10-10S65.4,783.86,59.9,783.86z"/>
			<path d="M110.3,839.06v40.3c0,5.5,4.5,10,10,10s10-4.5,10-10v-40.3c0-5.5-4.5-10-10-10S110.3,833.56,110.3,839.06z"/>
			<path d="M120.3,909.66c-16.9,0-30.1,13.3-30.1,30.2s13.2,30.2,30.1,30.2c16.9,0,30.1-13.3,30.1-30.2S137.2,909.66,120.3,909.66z
				 M120.3,950.06c-5.7,0-10.1-4.4-10.1-10.2s4.3-10.2,10.1-10.2c5.7,0,10.1,4.4,10.1,10.2S126.1,950.06,120.3,950.06z"/>
			<path d="M210.8,919.66v-40.3c0-5.5-4.5-10-10-10s-10,4.5-10,10v40.3c0,5.5,4.5,10,10,10S210.8,925.26,210.8,919.66z"/>
			<path d="M200.8,949.96c-16.9,0-30.1,13.3-30.1,30.2s13.2,30.2,30.1,30.2c16.8,0,30.1-13.3,30.1-30.2S217.7,949.96,200.8,949.96z
				 M200.8,990.46c-5.7,0-10.1-4.4-10.1-10.2s4.3-10.2,10.1-10.2c5.7,0,10.1,4.4,10.1,10.2S206.6,990.46,200.8,990.46z"/>
			<path d="M271.2,839.06v40.3c0,5.5,4.5,10,10,10c5.6,0,10-4.5,10-10v-40.3c0-5.5-4.5-10-10-10S271.2,833.56,271.2,839.06z"/>
			<path d="M281.2,909.66c-16.9,0-30.1,13.3-30.1,30.2s13.2,30.2,30.1,30.2c16.9,0,30.2-13.3,30.1-30.2
				C311.3,922.96,298.1,909.66,281.2,909.66z M281.2,950.06c-5.7,0-10.1-4.4-10.1-10.2s4.3-10.2,10.1-10.2c5.8,0,10.2,4.4,10.1,10.2
				C291.3,945.66,287,950.06,281.2,950.06z"/>
			<path d="M351.7,879.36v40.3c0,5.5,4.5,10,10,10c5.6,0,10-4.4,10-10v-40.3c0-5.5-4.5-10-10-10S351.7,873.86,351.7,879.36z"/>
			<path d="M361.7,949.96c-16.9,0-30.1,13.3-30.1,30.2s13.2,30.2,30.1,30.2c16.9,0,30.1-13.3,30.1-30.2S378.6,949.96,361.7,949.96z
				 M361.7,990.46c-5.7,0-10.1-4.4-10.1-10.2s4.3-10.2,10.1-10.2c5.8,0,10.1,4.4,10.1,10.2S367.5,990.46,361.7,990.46z"/>
		</g>
	</g>
</g>
<g>
</g>
<g>
</g>
<g>
</g>
<g>
</g>
<g>
</g>
<g>
</g>
<g>
</g>
<g>
</g>
<g>
</g>
<g>
</g>
<g>
</g>
<g>
</g>
<g>
</g>
<g>
</g>
<g>
</g>
</svg>
