<?xml version="1.0" encoding="utf-8"?>
<!-- Generator: Adobe Illustrator 16.0.0, SVG Export Plug-In . SVG Version: 6.00 Build 0)  -->
<!DOCTYPE svg PUBLIC "-//W3C//DTD SVG 1.0//EN" "http://www.w3.org/TR/2001/REC-SVG-20010904/DTD/svg10.dtd">
<svg version="1.0" id="Layer_1" xmlns="http://www.w3.org/2000/svg" xmlns:xlink="http://www.w3.org/1999/xlink" x="0px" y="0px"
	 width="100px" height="100px" viewBox="0 0 100 100" enable-background="new 0 0 100 100" xml:space="preserve">
<polygon points="60,36.667 47.777,36.667 40,60 50,60 43.333,80 63.333,53.333 53.333,53.333 "/>
<path d="M33.333,40c0-11.045,8.955-20,20-20c7.702,0,13.991,5.853,14.831,13.333h5.169c5.515,0,10,4.485,10,10
	c0,5.514-4.485,10-10,10H70V60h3.333C82.539,60,90,52.539,90,43.333c0-9.206-7.461-16.667-16.667-16.667
	c-3.262-7.829-10.986-13.333-20-13.333c-12.42,0-22.827,8.506-25.792,20h-4.207C15.97,33.333,10,39.303,10,46.667
	C10,54.03,15.97,60,23.333,60h10v-6.667h-10c-3.677,0-6.667-2.991-6.667-6.667c0-3.675,2.99-6.667,6.667-6.667H33.333z"/>
<polygon points="14.445,66.667 10,80 17.028,80 21.473,66.667 "/>
<polygon points="76.309,66.667 71.862,80 78.887,80 83.333,66.667 "/>
<polygon points="26.305,73.333 21.86,86.667 28.888,86.667 33.333,73.333 "/>
<polygon points="59.642,73.333 55.195,86.667 62.224,86.667 66.667,73.333 "/>
</svg>
