<?xml version="1.0" encoding="iso-8859-1"?>
<!-- Generator: Adobe Illustrator 19.0.0, SVG Export Plug-In . SVG Version: 6.00 Build 0)  -->
<svg version="1.1" id="Layer_1" xmlns="http://www.w3.org/2000/svg" xmlns:xlink="http://www.w3.org/1999/xlink" x="0px" y="0px"
	 viewBox="0 0 487.961 487.961" style="enable-background:new 0 0 487.961 487.961;" xml:space="preserve">
<g transform="translate(0 -540.36)">
	<g>
		<g>
			<path d="M128.681,895.621v-39.8c0-5.5-4.5-10-10-10s-10,4.5-10,10v39.8c0,5.5,4.5,10,10,10S128.681,901.121,128.681,895.621z"/>
			<path d="M118.681,926.321c-16.8,0-31,13.9-31,30.3c0,17,13.6,30.3,31,30.3c16.8,0,31-13.9,31-30.3
				C149.681,940.521,135.181,926.321,118.681,926.321z M118.681,966.821c-6.3,0-11-4.4-11-10.3c0-4.9,4.5-10.3,11-10.3
				c5.3,0,11,5.3,11,10.3C129.681,962.621,123.881,966.821,118.681,966.821z"/>
			<path d="M211.681,936.221v-39.8c0-5.5-4.5-10-10-10s-10,4.5-10,10v39.8c0,5.5,4.5,10,10,10S211.681,941.821,211.681,936.221z"/>
			<path d="M201.681,967.721c-16.8,0-31,13.9-31,30.3c0,16.1,14.5,30.3,31,30.3c16.8,0,30.9-13.9,31-30.3
				C232.681,981.021,219.081,967.721,201.681,967.721z M201.681,1008.321c-5.4,0-11-5.3-11-10.3c0-6.1,5.8-10.3,11-10.3
				c6.2,0,10.9,4.4,11,10.3C212.681,1002.921,208.181,1008.321,201.681,1008.321z"/>
			<path d="M295.481,895.621v-39.8c0-5.5-4.5-10-10-10s-10,4.5-10,10v39.8c0,5.5,4.5,10,10,10S295.481,901.121,295.481,895.621z"/>
			<path d="M285.481,926.321c-16.5,0-31,14.2-31,30.3c0,16.4,14.2,30.3,31,30.3c17.3,0,30.9-13.4,31-30.3
				C316.481,940.221,302.281,926.321,285.481,926.321z M285.481,966.821c-5.2,0-11-4.2-11-10.3c0-5,5.7-10.3,11-10.3
				c6.4,0,10.9,5.5,11,10.3C296.481,962.421,291.681,966.821,285.481,966.821z"/>
			<path d="M359.281,896.421v39.8c0,5.5,4.5,10,10,10s10-4.4,10-10v-39.8c0-5.5-4.5-10-10-10S359.281,890.921,359.281,896.421z"/>
			<path d="M369.281,967.721c-16.8,0-31,13.9-31,30.3c0,16.1,14.5,30.3,31,30.3c16.8,0,30.9-13.9,31-30.3
				C400.281,981.021,386.681,967.721,369.281,967.721z M369.281,1008.321c-5.4,0-11-5.3-11-10.3c0-6.1,5.8-10.3,11-10.3
				c6.2,0,10.9,4.4,11,10.3C380.281,1002.921,375.781,1008.321,369.281,1008.321z"/>
			<path d="M389.381,734.021c1.6-3.6,0.8-7.8-1.8-10.7c-2.7-2.9-6.8-4-10.5-2.8c-10.7,3.4-22.9,5.2-36.3,5.2
				c-72.5,0-131.6-56-131.6-124.9c0-16,3.1-31.6,9.3-46.6c1.4-3.6,0.7-7.6-1.8-10.5c-2.6-2.9-6.5-4-10.2-3
				c-31.6,8.9-58.8,27-78.5,52.3c-19.8,25.3-30.2,55.5-30.2,87.3c0,79.9,68,144.9,151.6,144.9h0c0.1,0,0.1,0,0.2,0.2
				c30-0.4,59-9.2,83.9-25.4C358.581,783.721,377.981,760.921,389.381,734.021z M249.381,805.221c-72.6-0.1-131.6-56.1-131.6-124.9
				c0-49.7,29.6-93.3,75.5-113.7c-2.7,11.2-4.1,22.6-4,34.1c0,79.9,68,144.9,151.6,144.9c7.1,0,13.9-0.4,20.5-1.3
				C337.781,781.221,295.881,804.521,249.381,805.221z"/>
		</g>
	</g>
</g>
<g>
</g>
<g>
</g>
<g>
</g>
<g>
</g>
<g>
</g>
<g>
</g>
<g>
</g>
<g>
</g>
<g>
</g>
<g>
</g>
<g>
</g>
<g>
</g>
<g>
</g>
<g>
</g>
<g>
</g>
</svg>
