<?xml version="1.0" encoding="iso-8859-1"?>
<!-- Generator: Adobe Illustrator 18.0.0, SVG Export Plug-In . SVG Version: 6.00 Build 0)  -->
<!DOCTYPE svg PUBLIC "-//W3C//DTD SVG 1.1//EN" "http://www.w3.org/Graphics/SVG/1.1/DTD/svg11.dtd">
<svg version="1.1" id="Capa_1" xmlns="http://www.w3.org/2000/svg" xmlns:xlink="http://www.w3.org/1999/xlink" x="0px" y="0px"
	 viewBox="0 0 226.705 226.705" xml:space="preserve">
<g>
	<path d="M174.177,106.669c-23.998,0-43.522,19.523-43.522,43.522c0,20.026,16.291,36.318,36.316,36.318c4.143,0,7.5-3.358,7.5-7.5
		c0-4.142-3.357-7.5-7.5-7.5c-11.754,0-21.316-9.563-21.316-21.318c0-15.727,12.795-28.522,28.522-28.522
		c20.693,0,37.528,16.834,37.528,37.525c0,26.901-21.886,48.787-48.786,48.787H7.5c-4.142,0-7.5,3.358-7.5,7.5
		c0,4.142,3.358,7.5,7.5,7.5h155.419c35.172,0,63.786-28.615,63.786-63.787C226.705,130.232,203.141,106.669,174.177,106.669z"/>
	<path d="M7.5,158.657h69.889c23.534,0,42.68-19.146,42.68-42.68c0-19.652-15.989-35.641-35.643-35.641
		c-16.55,0-30.014,13.464-30.014,30.014c0,14.066,11.444,25.51,25.51,25.51c4.142,0,7.5-3.358,7.5-7.5c0-4.142-3.358-7.5-7.5-7.5
		c-5.795,0-10.51-4.715-10.51-10.51c0-8.279,6.735-15.014,15.014-15.014c11.382,0,20.643,9.259,20.643,20.641
		c0,15.263-12.417,27.68-27.68,27.68H7.5c-4.142,0-7.5,3.358-7.5,7.5S3.358,158.657,7.5,158.657z"/>
	<path d="M2.304,53.919c1.112,1.925,3.128,3.001,5.202,3.001c1.018,0,2.05-0.259,2.995-0.805l13.168-7.603v15.206
		c0,3.313,2.687,6,6,6c3.313,0,6-2.687,6-6V48.512l13.169,7.604c0.945,0.545,1.977,0.805,2.995,0.805
		c2.073,0,4.09-1.076,5.202-3.001c1.657-2.87,0.673-6.539-2.196-8.196l-13.169-7.604l13.169-7.604
		c2.87-1.657,3.853-5.327,2.196-8.196c-1.658-2.87-5.326-3.853-8.196-2.196l-13.169,7.603V12.522c0-3.314-2.687-6-6-6
		c-3.313,0-6,2.686-6,6v15.204L10.5,20.123c-2.87-1.657-6.539-0.673-8.196,2.196c-1.657,2.87-0.673,6.539,2.196,8.196l13.169,7.604
		L4.5,45.723C1.63,47.38,0.647,51.049,2.304,53.919z"/>
	<path d="M117.287,70.317c1.111,1.925,3.128,3.001,5.202,3.001c1.018,0,2.049-0.259,2.994-0.805l24.252-14.001v28.004
		c0,3.313,2.687,6,6,6c3.314,0,6-2.687,6-6V58.511l24.254,14.003c0.945,0.545,1.977,0.805,2.994,0.805
		c2.074,0,4.091-1.076,5.202-3.001c1.656-2.87,0.674-6.54-2.196-8.196l-24.253-14.002l24.253-14.002
		c2.87-1.657,3.853-5.327,2.196-8.196c-1.656-2.869-5.323-3.853-8.196-2.196l-24.254,14.003V9.724c0-3.314-2.686-6-6-6
		c-3.314,0-6,2.686-6,6v28.002l-24.252-14.001c-2.871-1.657-6.54-0.672-8.196,2.196c-1.656,2.87-0.674,6.539,2.196,8.196
		l24.253,14.002l-24.253,14.002C116.613,63.778,115.631,67.448,117.287,70.317z"/>
</g>
<g>
</g>
<g>
</g>
<g>
</g>
<g>
</g>
<g>
</g>
<g>
</g>
<g>
</g>
<g>
</g>
<g>
</g>
<g>
</g>
<g>
</g>
<g>
</g>
<g>
</g>
<g>
</g>
<g>
</g>
</svg>
