<?xml version="1.0" encoding="utf-8"?>

<svg version="1.1" id="Icons" xmlns="http://www.w3.org/2000/svg" xmlns:xlink="http://www.w3.org/1999/xlink" x="0px" y="0px"
	 viewBox="0 0 32 32" style="enable-background:new 0 0 32 32;" xml:space="preserve">
<g>
	<path d="M19,5c-4.4,0-8.2,2.8-9.5,7c-3.3,0-6.1,2.6-6.4,5.9c0,0.3,0.1,0.6,0.3,0.8S3.7,19,4,19h23.5c0.4,0,0.8-0.3,0.9-0.7
		c0.4-1.1,0.6-2.2,0.6-3.3C29,9.5,24.5,5,19,5z"/>
	<path d="M19,22c0-0.6-0.4-1-1-1H4c-0.6,0-1,0.4-1,1s0.4,1,1,1h14C18.6,23,19,22.6,19,22z"/>
	<path d="M27,21h-5c-0.6,0-1,0.4-1,1s0.4,1,1,1h5c0.6,0,1-0.4,1-1S27.6,21,27,21z"/>
	<path d="M22,25H8c-0.6,0-1,0.4-1,1s0.4,1,1,1h14c0.6,0,1-0.4,1-1S22.6,25,22,25z"/>
</g>
</svg>
